<?xml version="1.0" encoding="utf-8"?>
<svg version="1.1" xmlns:xlink="http://www.w3.org/1999/xlink" width="18px" height="15px" xmlns="http://www.w3.org/2000/svg">
  <g transform="matrix(1 0 0 1 -851 -169 )">
    <path d="M 8.394618834080717 11.25  L 8.959641255605382 11.25  L 10.130044843049326 10.014204545454545  L 8.596412556053812 8.394886363636363  L 7.426008968609866 9.630681818181818  L 7.426008968609866 10.227272727272728  L 8.394618834080717 10.227272727272728  L 8.394618834080717 11.25  Z M 13.3890134529148 3.9311079545454546  C 13.503363228699554 3.8103693181818166  13.506726457399104 3.6931818181818166  13.399103139013453 3.5795454545454546  C 13.291479820627803 3.4659090909090895  13.180493273542602 3.4694602272727257  13.066143497757846 3.590198863636364  L 9.534753363228699 7.318892045454545  C 9.420403587443946 7.439630681818182  9.417040358744394 7.55681818181818  9.524663677130045 7.670454545454545  C 9.632286995515695 7.784090909090909  9.743273542600898 7.780539772727271  9.85762331838565 7.659801136363638  L 13.3890134529148 3.9311079545454546  Z M 14.004484304932737 9.59872159090909  C 14.1390134529148 9.65553977272727  14.206278026905828 9.758522727272728  14.206278026905828 9.907670454545455  L 14.206278026905828 11.931818181818182  C 14.206278026905828 12.776988636363637  13.922085201793724 13.499644886363637  13.353699551569505 14.099786931818182  C 12.785313901345294 14.699928977272727  12.100896860986548 15  11.300448430493274 15  L 2.905829596412556 15  C 2.1053811659192827 15  1.420964125560538 14.699928977272727  0.8525784753363228 14.099786931818182  C 0.2841928251121076 13.499644886363637  0 12.776988636363637  0 11.931818181818182  L 0 3.068181818181819  C 0 2.223011363636362  0.2841928251121076 1.5003551136363629  0.8525784753363228 0.9002130681818188  C 1.420964125560538 0.30007102272727126  2.1053811659192827 0  2.905829596412556 0  L 11.300448430493274 0  C 11.724215246636772 0  12.117713004484305 0.08877840909090828  12.480941704035875 0.2663352272727265  C 12.581838565022421 0.31605113636363535  12.64237668161435 0.3977272727272724  12.66255605381166 0.5113636363636359  C 12.682735426008968 0.6321022727272724  12.652466367713004 0.7350852272727265  12.571748878923767 0.8203125  L 12.077354260089685 1.3423295454545454  C 11.983183856502242 1.4417613636363629  11.875560538116593 1.4701704545454546  11.754484304932737 1.4275568181818188  C 11.599775784753364 1.3849431818181812  11.448430493273543 1.3636363636363642  11.300448430493274 1.3636363636363642  L 2.905829596412556 1.3636363636363642  C 2.461883408071749 1.3636363636363642  2.081838565022422 1.5305397727272712  1.7656950672645741 1.8643465909090906  C 1.4495515695067267 2.1981534090909083  1.2914798206278026 2.599431818181819  1.2914798206278026 3.068181818181819  L 1.2914798206278026 11.931818181818182  C 1.2914798206278026 12.400568181818182  1.4495515695067267 12.801846590909088  1.7656950672645741 13.13565340909091  C 2.081838565022422 13.469460227272727  2.461883408071749 13.636363636363637  2.905829596412556 13.636363636363637  L 11.300448430493274 13.636363636363637  C 11.74439461883408 13.636363636363637  12.124439461883409 13.469460227272727  12.440582959641256 13.13565340909091  C 12.756726457399104 12.801846590909088  12.914798206278027 12.400568181818182  12.914798206278027 11.931818181818182  L 12.914798206278027 10.589488636363637  C 12.914798206278027 10.49715909090909  12.945067264573993 10.41903409090909  13.00560538116592 10.355113636363637  L 13.65134529147982 9.673295454545455  C 13.752242152466367 9.566761363636363  13.869955156950674 9.541903409090908  14.004484304932737 9.59872159090909  Z M 6.457399103139013 9.204545454545455  L 13.237668161434978 2.0454545454545454  L 16.143497757847534 5.113636363636364  L 9.363228699551568 12.272727272727272  L 6.457399103139013 12.272727272727272  L 6.457399103139013 9.204545454545455  Z M 18 2.7272727272727266  C 18 3.0113636363636354  17.905829596412556 3.2528409090909083  17.717488789237667 3.4517045454545454  L 16.789237668161434 4.431818181818182  L 13.883408071748878 1.3636363636363642  L 14.811659192825113 0.3835227272727265  C 15 0.1846590909090895  15.228699551569507 0.08522727272727348  15.497757847533633 0.08522727272727348  C 15.766816143497758 0.08522727272727348  15.995515695067265 0.1846590909090895  16.183856502242154 0.3835227272727265  L 17.717488789237667 2.002840909090909  C 17.905829596412556 2.201704545454543  18 2.4431818181818175  18 2.7272727272727266  Z " fill-rule="nonzero" fill="#409eff" stroke="none" transform="matrix(1 0 0 1 851 169 )" />
  </g>
</svg>