<?xml version="1.0" encoding="utf-8"?>
<svg version="1.1" xmlns:xlink="http://www.w3.org/1999/xlink" width="24px" height="20px" xmlns="http://www.w3.org/2000/svg">
  <g transform="matrix(1 0 0 1 -621 -157 )">
    <path d="M 11.192825112107624 15  L 11.946188340807176 15  L 13.506726457399102 13.352272727272727  L 11.461883408071749 11.193181818181817  L 9.90134529147982 12.840909090909092  L 9.90134529147982 13.636363636363637  L 11.192825112107624 13.636363636363637  L 11.192825112107624 15  Z M 17.85201793721973 5.241477272727273  C 18.00448430493274 5.080492424242422  18.00896860986547 4.924242424242422  17.86547085201794 4.772727272727273  C 17.721973094170405 4.621212121212119  17.573991031390136 4.625946969696968  17.42152466367713 4.786931818181818  L 12.713004484304932 9.758522727272727  C 12.560538116591928 9.919507575757576  12.556053811659194 10.075757575757574  12.699551569506726 10.227272727272727  C 12.843049327354262 10.378787878787879  12.99103139013453 10.374053030303028  13.143497757847534 10.213068181818183  L 17.85201793721973 5.241477272727273  Z M 18.672645739910315 12.798295454545453  C 18.852017937219735 12.874053030303028  18.941704035874437 13.011363636363637  18.941704035874437 13.210227272727273  L 18.941704035874437 15.909090909090908  C 18.941704035874437 17.035984848484848  18.562780269058297 17.999526515151516  17.804932735426007 18.799715909090907  C 17.047085201793724 19.599905303030305  16.134529147982065 20  15.067264573991032 20  L 3.8744394618834077 20  C 2.807174887892377 20  1.8946188340807175 19.599905303030305  1.1367713004484306 18.799715909090907  C 0.3789237668161435 17.999526515151516  0 17.035984848484848  0 15.909090909090908  L 0 4.090909090909092  C 0 2.964015151515149  0.3789237668161435 2.000473484848484  1.1367713004484306 1.2002840909090917  C 1.8946188340807175 0.400094696969695  2.807174887892377 0  3.8744394618834077 0  L 15.067264573991032 0  C 15.632286995515695 0  16.15695067264574 0.11837121212121104  16.64125560538117 0.35511363636363535  C 16.77578475336323 0.4214015151515138  16.856502242152466 0.5303030303030298  16.883408071748878 0.6818181818181812  C 16.91031390134529 0.8428030303030298  16.869955156950674 0.9801136363636354  16.76233183856502 1.09375  L 16.103139013452914 1.789772727272727  C 15.977578475336323 1.922348484848484  15.83408071748879 1.960227272727273  15.672645739910315 1.9034090909090917  C 15.466367713004484 1.8465909090909083  15.26457399103139 1.8181818181818188  15.067264573991032 2  L 3.8744394618834077 2  C 3.282511210762332 1.8181818181818188  2.7757847533632294 2.040719696969695  2.3542600896860986 2.485795454545454  C 1.932735426008969 2.930871212121211  1.7219730941704037 3.4659090909090917  2 4.090909090909092  L 2 15.909090909090908  C 1.7219730941704037 16.534090909090907  1.932735426008969 17.069128787878785  2.3542600896860986 17.514204545454547  C 2.7757847533632294 17.959280303030305  3.282511210762332 18.18181818181818  3.8744394618834077 18  L 15.067264573991032 18  C 15.659192825112108 18.18181818181818  16.16591928251121 17.959280303030305  16.58744394618834 17.514204545454547  C 17.008968609865473 17.069128787878785  17.219730941704036 16.534090909090907  17.219730941704036 15.909090909090908  L 17.219730941704036 14.119318181818183  C 17.219730941704036 13.99621212121212  17.260089686098656 13.892045454545453  17.340807174887892 13.806818181818183  L 18.201793721973093 12.897727272727273  C 18.336322869955154 12.755681818181817  18.4932735426009 12.722537878787879  18.672645739910315 12.798295454545453  Z M 8.609865470852018 12.272727272727273  L 17.650224215246638 2.727272727272727  L 21.524663677130047 6.818181818181818  L 12.484304932735425 16.363636363636363  L 8.609865470852018 16.363636363636363  L 8.609865470852018 12.272727272727273  Z M 24 3.6363636363636354  C 24 4.015151515151514  23.87443946188341 4.337121212121211  23.623318385650222 4.602272727272727  L 22.385650224215247 5.909090909090908  L 18.51121076233184 1.8181818181818188  L 19.748878923766817 0.5113636363636354  C 20 0.24621212121211933  20.30493273542601 0.11363636363636465  20.663677130044846 0.11363636363636465  C 21.022421524663677 0.11363636363636465  21.327354260089688 0.24621212121211933  21.57847533632287 0.5113636363636354  L 23.623318385650222 2.670454545454546  C 23.87443946188341 2.9356060606060574  24 3.257575757575757  24 3.6363636363636354  Z " fill-rule="nonzero" fill="#a4a4a4" stroke="none" transform="matrix(1 0 0 1 621 157 )" />
  </g>
</svg>