<?xml version="1.0" encoding="utf-8"?>
<svg version="1.1" xmlns:xlink="http://www.w3.org/1999/xlink" width="25px" height="25px" xmlns="http://www.w3.org/2000/svg">
  <g transform="matrix(1 0 0 1 -271 -280 )">
    <path d="M 7.6450892857142865 0.9905133928571425  C 9.188988095238097 0.3301711309523808  10.807291666666668 0  12.5 0  C 14.192708333333334 0  15.811011904761907 0.3301711309523808  17.354910714285715 0.9905133928571425  C 18.898809523809526 1.6508556547619042  20.228794642857142 2.5390625  21.344866071428573 3.6551339285714275  C 22.460937500000004 4.771205357142858  23.3491443452381 6.101190476190474  24.009486607142858 7.645089285714285  C 24.66982886904762 9.188988095238093  25 10.807291666666666  25 12.5  C 25 14.183407738095239  24.672154017857142 15.797061011904761  24.016462053571427 17.34095982142857  C 23.360770089285715 18.884858630952383  22.474888392857142 20.21484375  21.358816964285715 21.33091517857143  C 20.242745535714285 22.446986607142858  18.912760416666668 23.337518601190474  17.368861607142858 24.002511160714285  C 15.82496279761905 24.667503720238095  14.202008928571427 25  12.5 25  C 10.797991071428571 25  9.175037202380953 24.66982886904762  7.631138392857142 24.009486607142858  C 6.087239583333334 23.349144345238095  4.759579613095238 22.458612351190474  3.6481584821428568 21.337890625  C 2.536737351190476 20.217168898809522  1.6508556547619049 18.887183779761905  0.9905133928571428 17.347935267857142  C 0.33017113095238093 15.808686755952378  0 14.192708333333332  0 12.5  C 0 10.807291666666666  0.33017113095238093 9.188988095238093  0.9905133928571428 7.645089285714285  C 1.6508556547619049 6.101190476190474  2.5390625 4.771205357142858  3.655133928571429 3.6551339285714275  C 4.771205357142857 2.5390625  6.101190476190476 1.6508556547619042  7.6450892857142865 0.9905133928571425  Z M 16.866629464285715 14.285714285714285  C 19.098772321428573 14.285714285714285  20.521763392857142 15.806361607142858  21.135602678571427 18.84765625  C 22.52139136904762 16.941034226190478  23.214285714285715 14.825148809523808  23.214285714285715 12.5  C 23.214285714285715 11.049107142857142  22.93061755952381 9.66331845238095  22.36328125 8.342633928571427  C 21.795944940476193 7.021949404761904  21.033296130952387 5.8826264880952355  20.075334821428573 4.924665178571427  C 19.117373511904763 3.966703869047619  17.978050595238095 3.2040550595238084  16.657366071428573 2.63671875  C 15.33668154761905 2.069382440476189  13.950892857142858 1.785714285714285  12.5 1.785714285714285  C 11.049107142857142 1.785714285714285  9.663318452380953 2.069382440476189  8.342633928571429 2.63671875  C 7.021949404761905 3.2040550595238084  5.882626488095239 3.966703869047619  4.924665178571429 4.924665178571427  C 3.96670386904762 5.8826264880952355  3.2040550595238098 7.021949404761904  2.63671875 8.342633928571427  C 2.0693824404761907 9.66331845238095  1.7857142857142856 11.049107142857142  1.7857142857142856 12.5  C 1.7857142857142856 14.825148809523808  2.4786086309523814 16.941034226190478  3.864397321428571 18.84765625  C 4.478236607142857 15.806361607142858  5.901227678571429 14.285714285714285  8.133370535714286 14.285714285714285  C 9.351748511904763 15.476190476190476  10.807291666666668 16.07142857142857  12.5 16.07142857142857  C 14.192708333333334 16.07142857142857  15.648251488095239 15.476190476190476  16.866629464285715 14.285714285714285  Z M 16.287667410714285 13.609095982142858  C 17.333984375 12.562779017857142  17.857142857142858 11.300223214285715  17.857142857142858 9.821428571428573  C 17.857142857142858 8.342633928571427  17.333984375 7.080078125  16.287667410714285 6.033761160714285  C 15.241350446428573 4.987444196428573  13.978794642857142 4.464285714285715  12.5 4.464285714285715  C 11.021205357142858 4.464285714285715  9.758649553571429 4.987444196428573  8.712332589285714 6.033761160714285  C 7.666015625 7.080078125  7.142857142857142 8.342633928571427  7.142857142857142 9.821428571428573  C 7.142857142857142 11.300223214285715  7.666015625 12.562779017857142  8.712332589285714 13.609095982142858  C 9.758649553571429 14.65541294642857  11.021205357142858 15.17857142857143  12.5 15.17857142857143  C 13.978794642857142 15.17857142857143  15.241350446428573 14.65541294642857  16.287667410714285 13.609095982142858  Z " fill-rule="nonzero" fill="#409eff" stroke="none" transform="matrix(1 0 0 1 271 280 )" />
  </g>
</svg>