<?xml version="1.0" encoding="utf-8"?>
<svg version="1.1" xmlns:xlink="http://www.w3.org/1999/xlink" width="25px" height="25px" xmlns="http://www.w3.org/2000/svg">
  <g transform="matrix(1 0 0 1 -271 -332 )">
    <path d="M 20.475260416666664 18.977864583333336  C 20.713975694444446 18.402777777777775  20.833333333333336 17.854817708333332  20.833333333333336 17.333984375  C 20.833333333333336 17.21462673611111  20.822482638888893 17.127821180555554  20.80078125 17.073567708333332  C 20.779079861111114 17.01931423611111  20.681423611111114 16.929796006944443  20.5078125 16.805013020833332  C 20.334201388888893 16.68023003472222  20.114474826388893 16.544596354166668  19.8486328125 16.398111979166668  C 19.582790798611114 16.251627604166668  19.325086805555557 16.107855902777775  19.075520833333336 15.966796875  C 18.825954861111114 15.825737847222221  18.5791015625 15.690104166666668  18.3349609375 15.559895833333332  C 18.0908203125 15.4296875  17.936197916666664 15.348307291666668  17.87109375 15.315755208333332  C 17.81684027777778 15.283203125  17.713758680555557 15.21267361111111  17.561848958333336 15.104166666666668  C 17.409939236111114 14.995659722222221  17.274305555555557 14.91427951388889  17.154947916666664 14.860026041666668  C 17.03559027777778 14.805772569444443  16.921657986111114 14.778645833333332  16.813151041666664 14.778645833333332  C 16.650390625 14.778645833333332  16.45236545138889 14.88986545138889  16.219075520833336 15.1123046875  C 15.985785590277779 15.33474392361111  15.771484375000004 15.57888454861111  15.576171875 15.8447265625  C 15.380859375000004 16.11056857638889  15.171983506944445 16.35470920138889  14.949544270833334 16.5771484375  C 14.727105034722223 16.79958767361111  14.545355902777779 16.910807291666668  14.404296875 16.910807291666668  C 14.32834201388889 16.910807291666668  14.238823784722223 16.89181857638889  14.1357421875 16.853841145833332  C 14.032660590277779 16.815863715277775  13.948567708333334 16.780598958333332  13.883463541666666 16.748046875  C 13.818359375 16.715494791666668  13.726128472222223 16.663953993055554  13.606770833333334 16.593424479166668  C 13.487413194444445 16.522894965277775  13.411458333333334 16.47677951388889  13.37890625 16.455078125  C 12.3046875 15.858289930555552  11.382378472222223 15.171983506944443  10.611979166666668 14.396158854166668  C 9.841579861111112 13.62033420138889  9.15256076388889 12.6953125  8.544921875 11.62109375  C 8.523220486111112 11.588541666666666  8.477105034722223 11.512586805555555  8.406575520833332 11.393229166666666  C 8.336046006944446 11.273871527777777  8.284505208333334 11.181640625  8.251953125 11.116536458333334  C 8.219401041666668 11.051432291666666  8.184136284722223 10.967339409722221  8.146158854166668 10.8642578125  C 8.108181423611112 10.761176215277777  8.089192708333332 10.67165798611111  8.089192708333332 10.595703125  C 8.089192708333332 10.454644097222221  8.20041232638889 10.272894965277777  8.4228515625 10.050455729166666  C 8.645290798611112 9.828016493055555  8.889431423611112 9.619140625  9.1552734375 9.423828125  C 9.42111545138889 9.228515625  9.66525607638889 9.014214409722221  9.8876953125 8.780924479166666  C 10.110134548611112 8.54763454861111  10.221354166666668 8.349609375  10.221354166666668 8.186848958333334  C 10.221354166666668 8.078342013888888  10.194227430555557 7.964409722222221  10.139973958333332 7.845052083333334  C 10.085720486111112 7.725694444444442  10.004340277777779 7.590060763888887  9.895833333333332 7.438151041666666  C 9.78732638888889 7.286241319444442  9.716796875 7.183159722222221  9.684244791666668 7.12890625  C 9.651692708333332 7.063802083333334  9.5703125 6.9091796875  9.440104166666668 6.6650390625  C 9.309895833333332 6.4208984375  9.174262152777779 6.174045138888887  9.033203125 5.924479166666666  C 8.892144097222223 5.674913194444442  8.748372395833332 5.417209201388887  8.601888020833332 5.1513671875  C 8.455403645833332 4.885525173611108  8.319769965277777 4.665798611111108  8.194986979166668 4.4921875  C 8.070203993055557 4.318576388888887  7.980685763888889 4.220920138888887  7.926432291666667 4.19921875  C 7.872178819444445 4.177517361111108  7.785373263888889 4.166666666666666  7.666015625 4.166666666666666  C 7.145182291666667 4.166666666666666  6.597222222222222 4.286024305555555  6.022135416666666 4.524739583333334  C 5.523003472222223 4.752604166666666  5.088975694444445 5.265299479166666  4.720052083333334 6.062825520833334  C 4.351128472222223 6.8603515625  4.166666666666666 7.568359375  4.166666666666666 8.186848958333334  C 4.166666666666666 8.360460069444445  4.180230034722223 8.544921875  4.207356770833334 8.740234375  C 4.234483506944445 8.935546875  4.261610243055556 9.101019965277777  4.288736979166666 9.236653645833334  C 4.315863715277779 9.372287326388888  4.364691840277779 9.551323784722221  4.435221354166666 9.773763020833334  C 4.505750868055556 9.996202256944445  4.560004340277779 10.15625  4.597981770833334 10.25390625  C 4.635959201388889 10.3515625  4.703776041666666 10.530598958333334  4.801432291666666 10.791015625  C 4.899088541666666 11.051432291666666  4.958767361111112 11.214192708333334  4.98046875 11.279296875  C 5.631510416666666 13.05881076388889  6.806098090277778 14.79763454861111  8.504231770833332 16.495768229166668  C 10.20236545138889 18.19390190972222  11.941189236111112 19.368489583333336  13.720703125 20.01953125  C 13.785807291666668 20.041232638888886  13.948567708333334 20.100911458333336  14.208984375 20.198567708333336  C 14.469401041666668 20.296223958333336  14.648437500000004 20.364040798611114  14.74609375 20.402018229166664  C 14.843750000000004 20.43999565972222  15.003797743055557 20.494249131944446  15.226236979166666 20.564778645833336  C 15.448676215277779 20.63530815972222  15.627712673611112 20.68413628472222  15.763346354166666 20.711263020833336  C 15.898980034722223 20.738389756944446  16.064453125000004 20.765516493055554  16.259765625 20.792643229166664  C 16.455078125000004 20.81976996527778  16.639539930555557 20.833333333333336  16.813151041666664 20.833333333333336  C 17.431640625 20.833333333333336  18.1396484375 20.64887152777778  18.937174479166664 20.279947916666664  C 19.734700520833336 19.911024305555554  20.247395833333336 19.47699652777778  20.475260416666664 18.977864583333336  Z M 23.624674479166664 1.3753255208333344  C 24.54155815972222 2.2922092013888866  25 3.3962673611111076  25 4.6875  L 25 20.3125  C 25 21.603732638888886  24.54155815972222 22.707790798611114  23.624674479166664 23.624674479166664  C 22.707790798611114 24.54155815972222  21.603732638888893 25  20.3125 25  L 4.6875 25  C 3.396267361111111 25  2.2922092013888893 24.54155815972222  1.3753255208333335 23.624674479166664  C 0.45844184027777773 22.707790798611114  0 21.603732638888886  0 20.3125  L 0 4.6875  C 0 3.3962673611111076  0.45844184027777773 2.2922092013888866  1.3753255208333335 1.3753255208333344  C 2.2922092013888893 0.45844184027777624  3.396267361111111 0  4.6875 0  L 20.3125 0  C 21.603732638888893 0  22.707790798611114 0.45844184027777624  23.624674479166664 1.3753255208333344  Z " fill-rule="nonzero" fill="#47b762" stroke="none" transform="matrix(1 0 0 1 271 332 )" />
  </g>
</svg>