<?xml version="1.0" encoding="utf-8"?>
<svg version="1.1" xmlns:xlink="http://www.w3.org/1999/xlink" width="25px" height="21px" xmlns="http://www.w3.org/2000/svg">
  <g transform="matrix(1 0 0 1 -189 -352 )">
    <path d="M 10.17219387755102 19.203515624999998  C 10.16156462585034 19.263671875  10.17219387755102 19.337500000000002  10.204081632653061 19.425  C 10.204081632653061 19.46875  10.209396258503402 19.578125  10.220025510204081 19.753125  C 10.230654761904763 19.928125  10.233312074829932 20.073046875  10.227997448979592 20.187890624999998  C 10.222682823129253 20.302734375  10.206738945578232 20.43125  10.18016581632653 20.5734375  C 10.15359268707483 20.715625000000003  10.100446428571429 20.822265625  10.020727040816327 20.893359375  C 9.941007653061225 20.964453125  9.832057823129253 21  9.693877551020408 21  L 4.591836734693878 21  C 3.326955782312926 21  2.2454294217687076 20.537890625  1.3472576530612246 19.613671874999998  C 0.44908588435374147 18.689453125  0 17.576562499999998  0 16.275000000000002  L 0 4.725  C 0 3.423437499999997  0.44908588435374147 2.310546874999999  1.3472576530612246 1.3863281250000004  C 2.2454294217687076 0.46210937499999705  3.326955782312926 0  4.591836734693878 0  L 9.693877551020408 0  C 9.832057823129253 0  9.951636904761905 0.05195312499999705  10.052614795918368 0.15585937500000047  C 10.15359268707483 0.2597656249999992  10.204081632653061 0.3828124999999992  10.204081632653061 0.5250000000000005  C 10.204081632653061 0.568749999999998  10.209396258503402 0.6781249999999988  10.220025510204081 0.8531250000000005  C 10.230654761904763 1.0281249999999975  10.233312074829932 1.173046875000001  10.227997448979592 1.287890624999999  C 10.222682823129253 1.4027343749999996  10.206738945578232 1.5312499999999991  10.18016581632653 1.6734375000000004  C 10.15359268707483 1.8156249999999972  10.100446428571429 1.9222656249999979  10.020727040816327 1.993359375000001  C 9.941007653061225 2.064453124999999  9.832057823129253 2.0999999999999996  9.693877551020408 2.0999999999999996  L 4.591836734693878 2.0999999999999996  C 3.8903061224489797 2.0999999999999996  3.289753401360545 2.357031249999997  2.7901785714285716 2.87109375  C 2.2906037414965987 3.3851562499999988  2.0408163265306123 4.003125000000001  2 4.725  L 2 16.275000000000002  C 2.0408163265306123 16.996875  2.2906037414965987 17.614843749999995  2.7901785714285716 18.12890625  C 3.289753401360545 18.642968749999998  3.8903061224489797 18.900000000000002  4.591836734693878 18.900000000000002  L 9.183673469387756 18.900000000000002  L 9.35905612244898 18.900000000000002  L 9.566326530612244 18.900000000000002  C 9.566326530612244 18.900000000000002  9.627444727891158 18.905468749999997  9.74968112244898 18.916406249999998  C 9.871917517006803 18.927343750000002  9.933035714285714 18.94375  9.933035714285714 18.965625  C 9.933035714285714 18.987499999999997  9.975552721088436 19.017578125  10.060586734693878 19.055859375  C 10.14562074829932 19.094140624999998  10.182823129251702 19.143359375  10.17219387755102 19.203515624999998  Z M 24.69706632653061 9.76171875  C 24.89902210884354 9.96953125  25 10.215625  25 10.5  C 25 10.784374999999997  24.89902210884354 11.030468749999997  24.69706632653061 11.23828125  L 16.023596938775512 20.16328125  C 15.821641156462585 20.37109375  15.58248299319728 20.474999999999998  15.306122448979592 20.474999999999998  C 15.029761904761907 20.474999999999998  14.7906037414966 20.37109375  14.588647959183673 20.16328125  C 14.38669217687075 19.955468749999998  14.285714285714285 19.709374999999998  14.285714285714285 19.425  L 14.285714285714285 14.7  L 7.142857142857142 14.7  C 6.866496598639456 14.7  6.62733843537415 14.59609375  6.425382653061225 14.38828125  C 6.223426870748299 14.180468749999998  6.122448979591836 13.934374999999998  6.122448979591836 13.65  L 6.122448979591836 7.35  C 6.122448979591836 7.065624999999997  6.223426870748299 6.819531249999997  6.425382653061225 6.61171875  C 6.62733843537415 6.4039062499999995  6.866496598639456 6.300000000000001  7.142857142857142 6.300000000000001  L 14.285714285714285 6.300000000000001  L 14.285714285714285 1.574999999999999  C 14.285714285714285 1.2906249999999966  14.38669217687075 1.0445312499999966  14.588647959183673 0.8367187499999991  C 14.7906037414966 0.6289062499999992  15.029761904761907 0.5250000000000005  15.306122448979592 0.5250000000000005  C 15.58248299319728 0.5250000000000005  15.821641156462585 0.6289062499999992  16.023596938775512 0.8367187499999991  L 24.69706632653061 9.76171875  Z " fill-rule="nonzero" fill="#ff8e50" stroke="none" transform="matrix(1 0 0 1 189 352 )" />
  </g>
</svg>