<?xml version="1.0" encoding="utf-8"?>
<svg version="1.1" xmlns:xlink="http://www.w3.org/1999/xlink" width="17px" height="19px" xmlns="http://www.w3.org/2000/svg">
  <g transform="matrix(1 0 0 1 -370 -395 )">
    <path d="M 14.166666666666668 5.428571428571428  C 14.166666666666668 6.467633928571428  13.87521701388889 7.428943452380951  13.292317708333332 8.3125  C 13.639105902777779 8.411458333333332  13.969292534722223 8.545758928571429  14.282877604166668 8.715401785714285  C 14.596462673611112 8.885044642857144  14.9248046875 9.143043154761903  15.267903645833332 9.489397321428571  C 15.611002604166668 9.835751488095237  15.904296875 10.243954613095237  16.147786458333332 10.714006696428571  C 16.391276041666668 11.184058779761903  16.59418402777778 11.791945684523807  16.756510416666668 12.537667410714286  C 16.918836805555554 13.283389136904763  17 14.119233630952381  17 15.045200892857144  C 17 16.13374255952381  16.63107638888889 17.065011160714285  15.893229166666668 17.839006696428573  C 15.155381944444446 18.613002232142858  14.266276041666668 19  13.225911458333332 19  L 3.774088541666667 19  C 2.733723958333333 19  1.8446180555555558 18.613002232142858  1.1067708333333335 17.839006696428573  C 0.36892361111111105 17.065011160714285  0 16.13374255952381  0 15.045200892857144  C 0 14.119233630952381  0.08116319444444443 13.283389136904763  0.24348958333333331 12.537667410714286  C 0.40581597222222227 11.791945684523807  0.6087239583333333 11.184058779761903  0.8522135416666667 10.714006696428571  C 1.095703125 10.243954613095237  1.3889973958333335 9.835751488095237  1.7320963541666665 9.489397321428571  C 2.0751953125 9.143043154761903  2.4035373263888893 8.885044642857144  2.717122395833333 8.715401785714285  C 3.030707465277778 8.545758928571429  3.3608940972222223 8.411458333333332  3.707682291666667 8.3125  C 3.1247829861111116 7.428943452380951  2.833333333333333 6.467633928571428  2.833333333333333 5.428571428571428  C 2.833333333333333 4.693452380952379  2.982747395833333 3.9919084821428568  3.281575520833333 3.3239397321428568  C 3.580403645833333 2.6559709821428568  3.984375 2.078125  4.493489583333334 1.5904017857142847  C 5.002604166666666 1.1026785714285716  5.605794270833334 0.7156808035714283  6.303059895833334 0.42940848214285654  C 7.000325520833334 0.1431361607142848  7.732638888888889 0  8.5 0  C 9.267361111111112 0  9.999674479166668 0.1431361607142848  10.696940104166668 0.42940848214285654  C 11.394205729166668 0.7156808035714283  11.997395833333332 1.1026785714285716  12.506510416666668 1.5904017857142847  C 13.015625 2.078125  13.419596354166668 2.6559709821428568  13.718424479166668 3.3239397321428568  C 14.017252604166668 3.9919084821428568  14.166666666666668 4.693452380952379  14.166666666666668 5.428571428571428  Z M 11.5048828125 2.5499441964285716  C 10.674804687500002 1.7547433035714284  9.673177083333334 1.3571428571428565  8.5 1.3571428571428565  C 7.326822916666666 1.3571428571428565  6.3251953125 1.7547433035714284  5.4951171875 2.5499441964285716  C 4.6650390625 3.3451450892857153  4.25 4.3046875  4.25 5.428571428571428  C 4.25 6.552455357142857  4.6650390625 7.511997767857143  5.4951171875 8.307198660714285  C 6.3251953125 9.102399553571429  7.326822916666666 9.5  8.5 9.5  C 9.673177083333334 9.5  10.674804687500002 9.102399553571429  11.5048828125 8.307198660714285  C 12.3349609375 7.511997767857143  12.75 6.552455357142857  12.75 5.428571428571428  C 12.75 4.3046875  12.3349609375 3.3451450892857153  11.5048828125 2.5499441964285716  Z M 3.774088541666667 17.642857142857142  L 13.225911458333332 17.642857142857142  C 13.87521701388889 17.642857142857142  14.430447048611112 17.390159970238095  14.8916015625 16.884765625  C 15.35275607638889 16.379371279761905  15.583333333333332 15.766183035714286  15.583333333333332 15.045200892857144  C 15.583333333333332 13.355840773809522  15.293728298611112 12.0234375  14.714518229166668 11.047991071428571  C 14.135308159722223 10.072544642857144  13.303385416666668 9.560081845238095  12.21875 9.510602678571429  C 11.148871527777777 10.408296130952381  9.909288194444445 10.857142857142856  8.5 10.857142857142856  C 7.090711805555556 10.857142857142856  5.851128472222223 10.408296130952381  4.78125 9.510602678571429  C 3.696614583333333 9.560081845238095  2.864691840277778 10.072544642857144  2.285481770833333 11.047991071428571  C 1.706271701388889 12.0234375  1.4166666666666665 13.355840773809522  1.4166666666666665 15.045200892857144  C 1.4166666666666665 15.766183035714286  1.6472439236111112 16.379371279761905  2.1083984375 16.884765625  C 2.5695529513888893 17.390159970238095  3.1247829861111116 17.642857142857142  3.774088541666667 17.642857142857142  Z " fill-rule="nonzero" fill="#acacac" stroke="none" transform="matrix(1 0 0 1 370 395 )" />
  </g>
</svg>